# Blender v2.93.1 OBJ File: 'projeto cg.blend'
# www.blender.org
mtllib cilinder.mtl
o Cylinder
v 2.499306 7.531761 -5.990288
v 2.499306 10.481915 -5.990288
v 2.494750 7.531761 -5.990737
v 2.494750 10.481915 -5.990737
v 2.490368 7.531761 -5.992066
v 2.490368 10.481915 -5.992066
v 2.486330 7.531761 -5.994225
v 2.486330 10.481915 -5.994225
v 2.482791 7.531761 -5.997129
v 2.482791 10.481915 -5.997129
v 2.479886 7.531761 -6.000669
v 2.479886 10.481915 -6.000669
v 2.477728 7.531761 -6.004706
v 2.477728 10.481915 -6.004706
v 2.476398 7.531761 -6.009088
v 2.476398 10.481915 -6.009088
v 2.475950 7.531761 -6.013645
v 2.475950 10.481915 -6.013645
v 2.476398 7.531761 -6.018201
v 2.476398 10.481915 -6.018201
v 2.477728 7.531761 -6.022583
v 2.477728 10.481915 -6.022583
v 2.479886 7.531761 -6.026621
v 2.479886 10.481915 -6.026621
v 2.482791 7.531761 -6.030160
v 2.482791 10.481915 -6.030160
v 2.486330 7.531761 -6.033065
v 2.486330 10.481915 -6.033065
v 2.490368 7.531761 -6.035223
v 2.490368 10.481915 -6.035223
v 2.494750 7.531761 -6.036552
v 2.494750 10.481915 -6.036552
v 2.499306 7.531761 -6.037001
v 2.499306 10.481915 -6.037001
v 2.503863 7.531761 -6.036552
v 2.503863 10.481915 -6.036552
v 2.508244 7.531761 -6.035223
v 2.508244 10.481915 -6.035223
v 2.512282 7.531761 -6.033065
v 2.512282 10.481915 -6.033065
v 2.515822 7.531761 -6.030160
v 2.515822 10.481915 -6.030160
v 2.518726 7.531761 -6.026621
v 2.518726 10.481915 -6.026621
v 2.520885 7.531761 -6.022583
v 2.520885 10.481915 -6.022583
v 2.522214 7.531761 -6.018201
v 2.522214 10.481915 -6.018201
v 2.522663 7.531761 -6.013645
v 2.522663 10.481915 -6.013645
v 2.522214 7.531761 -6.009088
v 2.522214 10.481915 -6.009088
v 2.520885 7.531761 -6.004706
v 2.520885 10.481915 -6.004706
v 2.518726 7.531761 -6.000669
v 2.518726 10.481915 -6.000669
v 2.515822 7.531761 -5.997129
v 2.515822 10.481915 -5.997129
v 2.512282 7.531761 -5.994225
v 2.512282 10.481915 -5.994225
v 2.508244 7.531761 -5.992066
v 2.508244 10.481915 -5.992066
v 2.503863 7.531761 -5.990737
v 2.503863 10.481915 -5.990737
vt 1.000000 1.000000
vt 0.968750 0.500000
vt 1.000000 0.500000
vt 0.968750 1.000000
vt 0.937500 0.500000
vt 0.937500 1.000000
vt 0.906250 0.500000
vt 0.906250 1.000000
vt 0.875000 0.500000
vt 0.875000 1.000000
vt 0.843750 0.500000
vt 0.843750 1.000000
vt 0.812500 0.500000
vt 0.812500 1.000000
vt 0.781250 0.500000
vt 0.781250 1.000000
vt 0.750000 0.500000
vt 0.750000 1.000000
vt 0.718750 0.500000
vt 0.718750 1.000000
vt 0.687500 0.500000
vt 0.687500 1.000000
vt 0.656250 0.500000
vt 0.656250 1.000000
vt 0.625000 0.500000
vt 0.625000 1.000000
vt 0.593750 0.500000
vt 0.593750 1.000000
vt 0.562500 0.500000
vt 0.562500 1.000000
vt 0.531250 0.500000
vt 0.531250 1.000000
vt 0.500000 0.500000
vt 0.500000 1.000000
vt 0.468750 0.500000
vt 0.468750 1.000000
vt 0.437500 0.500000
vt 0.437500 1.000000
vt 0.406250 0.500000
vt 0.406250 1.000000
vt 0.375000 0.500000
vt 0.375000 1.000000
vt 0.343750 0.500000
vt 0.343750 1.000000
vt 0.312500 0.500000
vt 0.312500 1.000000
vt 0.281250 0.500000
vt 0.281250 1.000000
vt 0.250000 0.500000
vt 0.250000 1.000000
vt 0.218750 0.500000
vt 0.218750 1.000000
vt 0.187500 0.500000
vt 0.187500 1.000000
vt 0.156250 0.500000
vt 0.156250 1.000000
vt 0.125000 0.500000
vt 0.125000 1.000000
vt 0.093750 0.500000
vt 0.093750 1.000000
vt 0.062500 0.500000
vt 0.028269 0.341844
vt 0.158156 0.028269
vt 0.471731 0.158156
vt 0.062500 1.000000
vt 0.031250 0.500000
vt 0.031250 1.000000
vt 0.000000 0.500000
vt 0.985388 0.296822
vt 0.796822 0.014612
vt 0.514612 0.203178
vt 0.341844 0.471731
vt 0.296822 0.485388
vt 0.158156 0.471731
vt 0.250000 0.490000
vt 0.203178 0.485388
vt 0.116663 0.449553
vt 0.080294 0.419706
vt 0.050447 0.383337
vt 0.014612 0.296822
vt 0.010000 0.250000
vt 0.014612 0.203178
vt 0.028269 0.158156
vt 0.050447 0.116663
vt 0.080294 0.080294
vt 0.116663 0.050447
vt 0.203178 0.014612
vt 0.250000 0.010000
vt 0.296822 0.014612
vt 0.341844 0.028269
vt 0.383337 0.050447
vt 0.419706 0.080294
vt 0.449553 0.116663
vt 0.485388 0.203178
vt 0.490000 0.250000
vt 0.485388 0.296822
vt 0.471731 0.341844
vt 0.449553 0.383337
vt 0.419706 0.419706
vt 0.383337 0.449553
vt 0.000000 1.000000
vt 0.703178 0.485388
vt 0.750000 0.490000
vt 0.796822 0.485388
vt 0.841844 0.471731
vt 0.883337 0.449553
vt 0.919706 0.419706
vt 0.949553 0.383337
vt 0.971731 0.341844
vt 0.990000 0.250000
vt 0.985388 0.203178
vt 0.971731 0.158156
vt 0.949553 0.116663
vt 0.919706 0.080294
vt 0.883337 0.050447
vt 0.841844 0.028269
vt 0.750000 0.010000
vt 0.703178 0.014612
vt 0.658156 0.028269
vt 0.616663 0.050447
vt 0.580294 0.080294
vt 0.550447 0.116663
vt 0.528269 0.158156
vt 0.510000 0.250000
vt 0.514612 0.296822
vt 0.528269 0.341844
vt 0.550447 0.383337
vt 0.580294 0.419706
vt 0.616663 0.449553
vt 0.658156 0.471731
vn -0.0980 0.0000 0.9952
vn -0.2903 0.0000 0.9569
vn -0.4713 0.0000 0.8819
vn -0.6343 0.0000 0.7731
vn -0.7730 0.0000 0.6344
vn -0.8819 0.0000 0.4714
vn -0.9569 0.0000 0.2903
vn -0.9952 0.0000 0.0980
vn -0.9952 0.0000 -0.0980
vn -0.9569 0.0000 -0.2903
vn -0.8819 0.0000 -0.4714
vn -0.7731 0.0000 -0.6343
vn -0.6343 0.0000 -0.7731
vn -0.4713 0.0000 -0.8819
vn -0.2906 0.0000 -0.9569
vn -0.0977 0.0000 -0.9952
vn 0.0983 0.0000 -0.9952
vn 0.2903 0.0000 -0.9569
vn 0.4713 0.0000 -0.8819
vn 0.6343 0.0000 -0.7731
vn 0.7730 0.0000 -0.6344
vn 0.8819 0.0000 -0.4715
vn 0.9569 0.0000 -0.2903
vn 0.9952 0.0000 -0.0980
vn 0.9952 0.0000 0.0980
vn 0.9569 0.0000 0.2903
vn 0.8819 0.0000 0.4714
vn 0.7731 0.0000 0.6343
vn 0.6343 0.0000 0.7731
vn 0.4713 0.0000 0.8819
vn 0.0000 1.0000 0.0000
vn 0.2903 0.0000 0.9569
vn 0.0980 0.0000 0.9952
vn 0.0000 -1.0000 0.0000
vn -0.7731 0.0000 0.6343
vn -0.8819 0.0000 -0.4715
vn -0.7730 0.0000 -0.6344
vn -0.2903 0.0000 -0.9569
vn -0.0983 0.0000 -0.9952
vn 0.0977 0.0000 -0.9952
vn 0.2906 0.0000 -0.9569
vn 0.7731 0.0000 -0.6343
vn 0.8819 0.0000 -0.4714
vn 0.7730 0.0000 0.6344
vn 0.0000 1.0000 0.0012
vn 0.0000 1.0000 0.0018
vn 0.0000 1.0000 -0.0002
vn 0.0000 1.0000 -0.0018
vn 0.0000 1.0000 0.0002
vn 0.0000 1.0000 0.0005
vn 0.0000 1.0000 0.0004
vn 0.0000 1.0000 -0.0005
vn 0.0000 -1.0000 -0.0018
vn 0.0000 -1.0000 0.0018
vn 0.0000 -1.0000 0.0002
vn 0.0000 -1.0000 -0.0002
vn 0.0000 -1.0000 0.0001
vn 0.0000 -1.0000 -0.0001
usemtl Material.017
s off
f 2/1/1 3/2/1 1/3/1
f 4/4/2 5/5/2 3/2/2
f 6/6/3 7/7/3 5/5/3
f 8/8/4 9/9/4 7/7/4
f 10/10/5 11/11/5 9/9/5
f 12/12/6 13/13/6 11/11/6
f 14/14/7 15/15/7 13/13/7
f 16/16/8 17/17/8 15/15/8
f 18/18/9 19/19/9 17/17/9
f 20/20/10 21/21/10 19/19/10
f 22/22/11 23/23/11 21/21/11
f 24/24/12 25/25/12 23/23/12
f 26/26/13 27/27/13 25/25/13
f 28/28/14 29/29/14 27/27/14
f 30/30/15 31/31/15 29/29/15
f 32/32/16 33/33/16 31/31/16
f 34/34/17 35/35/17 33/33/17
f 36/36/18 37/37/18 35/35/18
f 38/38/19 39/39/19 37/37/19
f 40/40/20 41/41/20 39/39/20
f 42/42/21 43/43/21 41/41/21
f 44/44/22 45/45/22 43/43/22
f 46/46/23 47/47/23 45/45/23
f 48/48/24 49/49/24 47/47/24
f 50/50/25 51/51/25 49/49/25
f 52/52/26 53/53/26 51/51/26
f 54/54/27 55/55/27 53/53/27
f 56/56/28 57/57/28 55/55/28
f 58/58/29 59/59/29 57/57/29
f 60/60/30 61/61/30 59/59/30
f 54/62/31 38/63/31 22/64/31
f 62/65/32 63/66/32 61/61/32
f 64/67/33 1/68/33 63/66/33
f 15/69/34 31/70/34 47/71/34
f 2/1/1 4/4/1 3/2/1
f 4/4/2 6/6/2 5/5/2
f 6/6/3 8/8/3 7/7/3
f 8/8/4 10/10/4 9/9/4
f 10/10/35 12/12/35 11/11/35
f 12/12/6 14/14/6 13/13/6
f 14/14/7 16/16/7 15/15/7
f 16/16/8 18/18/8 17/17/8
f 18/18/9 20/20/9 19/19/9
f 20/20/10 22/22/10 21/21/10
f 22/22/36 24/24/36 23/23/36
f 24/24/37 26/26/37 25/25/37
f 26/26/13 28/28/13 27/27/13
f 28/28/14 30/30/14 29/29/14
f 30/30/38 32/32/38 31/31/38
f 32/32/39 34/34/39 33/33/39
f 34/34/40 36/36/40 35/35/40
f 36/36/41 38/38/41 37/37/41
f 38/38/19 40/40/19 39/39/19
f 40/40/20 42/42/20 41/41/20
f 42/42/42 44/44/42 43/43/42
f 44/44/43 46/46/43 45/45/43
f 46/46/23 48/48/23 47/47/23
f 48/48/24 50/50/24 49/49/24
f 50/50/25 52/52/25 51/51/25
f 52/52/26 54/54/26 53/53/26
f 54/54/27 56/56/27 55/55/27
f 56/56/44 58/58/44 57/57/44
f 58/58/29 60/60/29 59/59/29
f 60/60/30 62/65/30 61/61/30
f 6/72/31 4/73/31 62/74/31
f 4/73/45 2/75/45 62/74/45
f 2/75/46 64/76/46 62/74/46
f 62/74/46 60/77/46 58/78/46
f 58/78/31 56/79/31 62/74/31
f 56/79/31 54/62/31 62/74/31
f 54/62/47 52/80/47 50/81/47
f 50/81/31 48/82/31 46/83/31
f 46/83/31 44/84/31 42/85/31
f 42/85/48 40/86/48 38/63/48
f 38/63/48 36/87/48 34/88/48
f 34/88/48 32/89/48 30/90/48
f 30/90/48 28/91/48 26/92/48
f 26/92/31 24/93/31 22/64/31
f 22/64/49 20/94/49 18/95/49
f 18/95/31 16/96/31 14/97/31
f 14/97/31 12/98/31 10/99/31
f 10/99/46 8/100/46 6/72/46
f 54/62/31 50/81/31 38/63/31
f 50/81/31 46/83/31 38/63/31
f 46/83/50 42/85/50 38/63/50
f 38/63/31 34/88/31 30/90/31
f 30/90/31 26/92/31 38/63/31
f 26/92/51 22/64/51 38/63/51
f 22/64/31 18/95/31 6/72/31
f 18/95/31 14/97/31 6/72/31
f 14/97/52 10/99/52 6/72/52
f 6/72/31 62/74/31 54/62/31
f 6/72/31 54/62/31 22/64/31
f 62/65/32 64/67/32 63/66/32
f 64/67/33 2/101/33 1/68/33
f 63/102/34 1/103/34 3/104/34
f 3/104/53 5/105/53 7/106/53
f 7/106/34 9/107/34 11/108/34
f 11/108/34 13/109/34 15/69/34
f 15/69/34 17/110/34 19/111/34
f 19/111/34 21/112/34 23/113/34
f 23/113/34 25/114/34 27/115/34
f 27/115/54 29/116/54 31/70/54
f 31/70/34 33/117/34 35/118/34
f 35/118/54 37/119/54 39/120/54
f 39/120/34 41/121/34 43/122/34
f 43/122/34 45/123/34 47/71/34
f 47/71/34 49/124/34 51/125/34
f 51/125/34 53/126/34 47/71/34
f 53/126/34 55/127/34 47/71/34
f 55/127/34 57/128/34 59/129/34
f 59/129/34 61/130/34 55/127/34
f 61/130/34 63/102/34 55/127/34
f 63/102/55 3/104/55 15/69/55
f 3/104/56 7/106/56 15/69/56
f 7/106/57 11/108/57 15/69/57
f 15/69/34 19/111/34 23/113/34
f 23/113/34 27/115/34 15/69/34
f 27/115/55 31/70/55 15/69/55
f 31/70/56 35/118/56 47/71/56
f 35/118/55 39/120/55 47/71/55
f 39/120/58 43/122/58 47/71/58
f 47/71/58 55/127/58 63/102/58
f 63/102/34 15/69/34 47/71/34
